<svg id="Layer_1" data-name="Layer 1" xmlns="http://www.w3.org/2000/svg" viewBox="0 0 111 81.95" data-original-title="Make a Payment" title="">
  <defs>
    <style>.cls-10{fill:none;}.cls-10,.cls-20{stroke:#1e2253;stroke-linecap:round;stroke-linejoin:round;stroke-width:3px;}.cls-20{fill:#fff;}</style>
  </defs>
  
  <polyline class="cls-10" points="82.94 26.92 109.5 26.92 109.5 80.45 1.5 80.45 1.5 26.92 65.13 26.92"></polyline>
  <line class="cls-10" x1="7.98" y1="35.82" x2="34.59" y2="35.82"></line>
  <line class="cls-10" x1="7.98" y1="42.01" x2="34.59" y2="42.01"></line>
  <line class="cls-10" x1="7.98" y1="48.21" x2="18.95" y2="48.21"></line>
  <line class="cls-10" x1="7.98" y1="61.39" x2="101" y2="61.39"></line>
  <line class="cls-10" x1="101" y1="72.84" x2="60.22" y2="72.84"></line>
  <line class="cls-10" x1="102.29" y1="35.82" x2="102.29" y2="38.98"></line>
  <line class="cls-10" x1="96.98" y1="35.82" x2="96.98" y2="38.98"></line>
  <line class="cls-10" x1="91.67" y1="35.82" x2="91.67" y2="38.98"></line>
  <path class="cls-10" d="M-346.87-105.55l3.18-2.45a2,2,0,0,1,2.72.35l2.28,3A1.94,1.94,0,0,1-339-102l-3.19,2.45" transform="translate(444.1 109.9)"></path>
  <line class="cls-10" x1="88.34" y1="22.69" x2="52.87" y2="50"></line>
  <line class="cls-10" x1="46.33" y1="41.5" x2="85.97" y2="10.98"></line>
  <line class="cls-10" x1="37" y1="55.45" x2="52.87" y2="50"></line>
  <line class="cls-10" x1="46.33" y1="41.5" x2="37" y2="55.45"></line>
  <line class="cls-20" x1="85.27" y1="30.88" x2="102.96" y2="17.26"></line>
  <path class="cls-10" d="M-394.85-70.65a9.09,9.09,0,0,0,6.54,8.5" transform="translate(444.1 109.9)"></path>
  <line class="cls-10" x1="37" y1="55.45" x2="34.51" y2="57.36"></line>
  <path class="cls-10" d="M-341.49-98.2l-6.54-8.49s-7.1,1.36-10.06,7.74l2.33,11.74S-343.82-92-341.49-98.2Z" transform="translate(444.1 109.9)"></path>
  <line class="cls-10" x1="97.53" y1="17.59" x2="99.39" y2="20"></line>
</svg>