<svg id="Layer_1" data-name="Layer 1" xmlns="http://www.w3.org/2000/svg" viewBox="0 0 112 76.48" data-original-title="" title="">
  <defs>
    <style>.cls-12,.cls-22{fill:none;stroke:#1e2253;stroke-width:4px;}.cls-12{stroke-linejoin:round;}.cls-22{stroke-miterlimit:10;}</style>
  </defs>
  <title>New To SPS</title>
  <line class="cls-12" x1="2" y1="56.73" x2="56.16" y2="56.73"></line>
  <line class="cls-12" x1="26.38" y1="71.69" x2="54.69" y2="71.69"></line>
  <path class="cls-12" d="M74.21-93.21H14.33a3.64,3.64,0,0,0-3.64,3.64v50.35a3.64,3.64,0,0,0,3.64,3.64H43.67v5.38" transform="translate(-8.69 101.46)"></path>
  <path class="cls-22" d="M76-84.46a15,15,0,0,0,15,15,15,15,0,0,0,15-15,15,15,0,0,0-15-15A15,15,0,0,0,76-84.46Z" transform="translate(-8.69 101.46)"></path>
  <path class="cls-22" d="M63.37-25V-41a5.39,5.39,0,0,1,5.4-5.39h44.52a5.39,5.39,0,0,1,5.4,5.39V-25" transform="translate(-8.69 101.46)"></path>
  <path class="cls-22" d="M115.85-45.74v-2.34c0-10.81-11.11-15.79-24.82-15.79s-24.82,5-24.82,15.79v2.34" transform="translate(-8.69 101.46)"></path>
</svg>