<svg id="Layer_1" data-name="Layer 1" xmlns="http://www.w3.org/2000/svg" viewBox="0 0 109 77.71" data-original-title="Customer Dashboard" title=""><defs><style>.cls-dashboardicn{fill:#1e2253!important;stroke:#1e2253;stroke-miterlimit:10;}</style></defs><path class="cls-dashboardicn" d="M114.69-142.73h-98a5,5,0,0,1-5-5v-66.76a5,5,0,0,1,5-5h98.05a5,5,0,0,1,5,5v66.76A5,5,0,0,1,114.69-142.73Zm-98-74.39A2.65,2.65,0,0,0,14-214.47v66.76A2.66,2.66,0,0,0,16.64-145h98.05a2.66,2.66,0,0,0,2.66-2.66v-66.76a2.66,2.66,0,0,0-2.66-2.65Z" transform="translate(-11.17 219.95)"></path><path class="cls-dashboardicn" d="M60.88-188.22a2.82,2.82,0,0,0,2.82,2.82,2.82,2.82,0,0,0,2.83-2.82,22.74,22.74,0,0,0-1.79-8.89,22.51,22.51,0,0,0-3.06-5.18l-3.52,4.8A17.11,17.11,0,0,1,60.88-188.22Z" transform="translate(-11.17 219.95)"></path><path class="cls-dashboardicn" d="M52.61-209.24A22.74,22.74,0,0,0,43.72-211a22.69,22.69,0,0,0-8.88,1.79,22.8,22.8,0,0,0-7.25,4.89,22.78,22.78,0,0,0-4.88,7.24,22.74,22.74,0,0,0-1.79,8.89,2.82,2.82,0,0,0,2.82,2.82,2.82,2.82,0,0,0,2.83-2.82,17.18,17.18,0,0,1,17.15-17.16,17.08,17.08,0,0,1,8.44,2.22l4.6-3.79A22.94,22.94,0,0,0,52.61-209.24Z" transform="translate(-11.17 219.95)"></path><path class="cls-dashboardicn" d="M58.64-205.48l-4.46,3.67L40.92-190.88a4,4,0,0,0-.67.7,3.91,3.91,0,0,0,.84,5.45,3.86,3.86,0,0,0,2.3.75,3.88,3.88,0,0,0,3.14-1.59L56.7-199.43l3.42-4.66L65-210.7Z" transform="translate(-11.17 219.95)"></path><rect class="cls-dashboardicn" x="56.68" y="67.86" width="45.77" height="2.36"></rect><rect class="cls-dashboardicn" x="60.58" y="58.59" width="6.62" height="9.27"></rect><rect class="cls-dashboardicn" x="71.03" y="50.34" width="6.62" height="17.52"></rect><rect class="cls-dashboardicn" x="81.48" y="61.97" width="6.62" height="5.89"></rect><rect class="cls-dashboardicn" x="91.93" y="46.52" width="6.62" height="21.34"></rect><path class="cls-dashboardicn" d="M112.64-209.18H82.13a1,1,0,0,0-1,1h0a1,1,0,0,0,1,1h30.51a1,1,0,0,0,1-1h0A1,1,0,0,0,112.64-209.18Z" transform="translate(-11.17 219.95)"></path><path class="cls-dashboardicn" d="M112.64-202.18H82.13a1,1,0,0,0-1,1h0a1,1,0,0,0,1,1h30.51a1,1,0,0,0,1-1h0A1,1,0,0,0,112.64-202.18Z" transform="translate(-11.17 219.95)"></path><path class="cls-dashboardicn" d="M112.64-195.17H82.13a1,1,0,0,0-1,1h0a1,1,0,0,0,1,1h30.51a1,1,0,0,0,1-1h0A1,1,0,0,0,112.64-195.17Z" transform="translate(-11.17 219.95)"></path><rect class="cls-dashboardicn" x="27.19" y="-153.75" width="31.03" height="2.9" rx="1.45" transform="translate(74.23 -84.66) rotate(180)"></rect><rect class="cls-dashboardicn" x="27.19" y="-162.29" width="31.03" height="2.9" rx="1.45" transform="translate(74.23 -101.74) rotate(-180)"></rect><rect class="cls-dashboardicn" x="27.19" y="-170.83" width="31.03" height="2.9" rx="1.45" transform="translate(74.23 -118.82) rotate(-180)"></rect><path class="cls-dashboardicn" d="M112.64-188.17H82.13a1,1,0,0,0-1,1h0a1,1,0,0,0,1,1h30.51a1,1,0,0,0,1-1h0A1,1,0,0,0,112.64-188.17Z" transform="translate(-11.17 219.95)"></path><circle class="cls-dashboardicn" cx="11.12" cy="67.64" r="2.68"></circle><circle class="cls-dashboardicn" cx="11.12" cy="59.1" r="2.68"></circle><circle class="cls-dashboardicn" cx="11.12" cy="50.56" r="2.68"></circle></svg>