<svg id="Layer_1" data-name="Layer 1" xmlns="http://www.w3.org/2000/svg" viewBox="0 0 108 80.09" data-original-title="" title="">
  <defs>
    <style>.cls-13{fill:#1e2253;}</style>
  </defs>
  <title>Request Assistance</title>
  <path class="cls-13" d="M-238.2-20.7a7,7,0,0,1-4.22-1.4,7.17,7.17,0,0,1-1.49-10l.47-.69c1.1-1.62,2.47-3.63,4.45-3.93a7.88,7.88,0,0,1,6.26,2c3,3.23,2.49,8.22.32,11.17a7.08,7.08,0,0,1-4.7,2.81A8.11,8.11,0,0,1-238.2-20.7Zm-.12-12.08a10.72,10.72,0,0,0-1.81,2.24c-.21.31-.4.59-.57.82a3.17,3.17,0,0,0,.66,4.41,3.09,3.09,0,0,0,2.34.57A3.11,3.11,0,0,0-235.63-26c1.19-1.62,1.46-4.46-.05-6.1A3.94,3.94,0,0,0-238.32-32.78Zm0,0Z" transform="translate(281.31 100.67)"></path>
  <path class="cls-13" d="M-248-24.89a7.08,7.08,0,0,1-4.23-1.39,7.17,7.17,0,0,1-1.49-10l4.42-6a7.06,7.06,0,0,1,4.7-2.8h0a7.19,7.19,0,0,1,5.31,1.31,7.16,7.16,0,0,1,1.49,10l-4.43,6A7.09,7.09,0,0,1-246.9-25,7.85,7.85,0,0,1-248-24.89Zm4-16.26A3.11,3.11,0,0,0-246-39.93l-4.44,6a3.18,3.18,0,0,0,.66,4.43,3.21,3.21,0,0,0,2.34.57,3.16,3.16,0,0,0,2.07-1.23l4.43-6a3.17,3.17,0,0,0-.66-4.42,3.14,3.14,0,0,0-2.34-.57Z" transform="translate(281.31 100.67)"></path>
  <path class="cls-13" d="M-263.95-38.08a7.12,7.12,0,0,1-4.23-1.39,7.18,7.18,0,0,1-1.49-10l4.43-6a7.06,7.06,0,0,1,4.7-2.8h0a7.13,7.13,0,0,1,5.31,1.3,7.16,7.16,0,0,1,1.49,10l-4.43,6a7.07,7.07,0,0,1-4.69,2.8A6.67,6.67,0,0,1-263.95-38.08Zm4.49-16.29a2.77,2.77,0,0,0-.49,0h0A3.13,3.13,0,0,0-262-53.11l-4.43,6a3.16,3.16,0,0,0,.66,4.42,3.12,3.12,0,0,0,2.33.57,3.1,3.1,0,0,0,2.07-1.23l4.43-6a3.17,3.17,0,0,0-.65-4.42A3.14,3.14,0,0,0-259.46-54.37Z" transform="translate(281.31 100.67)"></path>
  <path class="cls-13" d="M-257.7-29a7,7,0,0,1-4.22-1.4,7.16,7.16,0,0,1-1.5-10l8.8-12.2a7.11,7.11,0,0,1,4.71-2.81,7.1,7.1,0,0,1,5.31,1.3,7.16,7.16,0,0,1,1.49,10l-8.79,12.19A7.07,7.07,0,0,1-256.61-29,6.77,6.77,0,0,1-257.7-29Zm8.88-22.5a2.81,2.81,0,0,0-.5,0h0a3.13,3.13,0,0,0-2.07,1.22L-260.19-38a3.18,3.18,0,0,0,.65,4.44,3.07,3.07,0,0,0,2.33.57,3.11,3.11,0,0,0,2.08-1.23l8.79-12.19a3.17,3.17,0,0,0-.64-4.44A3.11,3.11,0,0,0-248.82-51.46Z" transform="translate(281.31 100.67)"></path>
  <path class="cls-13" d="M-194.5-39a7,7,0,0,1-3.9-1.17c-1-.66-19-13.09-19-13.09l2.28-3.29s17.89,12.39,18.89,13a3.1,3.1,0,0,0,3.9-.4,3.13,3.13,0,0,0,.91-2.2,3.14,3.14,0,0,0-1.43-2.51l-24.27-16.72,2.27-3.29,24.26,16.71a7.11,7.11,0,0,1,3.17,5.81,7,7,0,0,1-2.08,5A7.08,7.08,0,0,1-194.5-39Z" transform="translate(281.31 100.67)"></path>
  <path class="cls-13" d="M-206-61.45a18.57,18.57,0,0,1-9.9-3l-11.75-8.65a1.5,1.5,0,0,0-1.18-.27,1.53,1.53,0,0,0-1,.68l-2.6,4.07c-4,6.25-10.27,8.7-16,6.25a5.3,5.3,0,0,1-3.43-3.71c-.6-2.78,1.58-5.26,1.83-5.53l8.71-11.69a12.49,12.49,0,0,1,9.49-4.79c.41-.06,13.52-1.33,30.58,3.88,2.94-1.75,14-8.56,22-16.41l2.8,2.85c-9.65,9.46-23,17.15-23.53,17.47l-.76.44-.84-.27c-16.63-5.25-29.83-4-30-4a8.57,8.57,0,0,0-6.57,3.23L-247-69.12A3.43,3.43,0,0,0-248-67c.09.4.8.74,1.1.87,4.66,2,8.77-1.13,11.06-4.72l2.6-4.07a5.55,5.55,0,0,1,3.64-2.46,5.55,5.55,0,0,1,4.28,1l11.7,8.61c.25.17,7.76,5.15,13.81.08l2.57,3.06A13.35,13.35,0,0,1-206-61.45Z" transform="translate(281.31 100.67)"></path>
  <path class="cls-13" d="M-198.82-29a7,7,0,0,1-3.9-1.17c-1-.66-19.94-13.77-19.94-13.77l2.28-3.29s18.86,13.07,19.86,13.73a3.13,3.13,0,0,0,3.91-.4,3.83,3.83,0,0,0,1-2.52,3.22,3.22,0,0,0-.82-2.38l-17.23-11.88,2.27-3.29,17.51,12.11A7.78,7.78,0,0,1-193.78-31,7.11,7.11,0,0,1-198.82-29Z" transform="translate(281.31 100.67)"></path>
  <path class="cls-13" d="M-207.42-22.66a7.12,7.12,0,0,1-3.9-1.17C-212.23-24.43-232-38-232-38l2.27-3.3S-210-27.76-209.11-27.16a3.11,3.11,0,0,0,3.9-.41,3.12,3.12,0,0,0,0-4.4L-222.7-44l2.27-3.29L-202.66-35a7.15,7.15,0,0,1,.28,10.28A7.12,7.12,0,0,1-207.42-22.66Z" transform="translate(281.31 100.67)"></path>
  <path class="cls-13" d="M-222.18-20.59a7.11,7.11,0,0,1-3.91-1.16c-.9-.6-8-5.51-8-5.51l2.26-3.29s7.1,4.87,8,5.46a3.13,3.13,0,0,0,3.92-.4,3.12,3.12,0,0,0,0-4.4l-12.58-8.53,2.25-3.31L-217.43-33a7.18,7.18,0,0,1,2.37,5.27,7.09,7.09,0,0,1-2.08,5A7.11,7.11,0,0,1-222.18-20.59Z" transform="translate(281.31 100.67)"></path>
  <path class="cls-13" d="M-266.6-53.07c0-.07-2.14-3.28-14.71-12.28L-279-68.6c13.25,9.49,15.57,13,15.9,13.63Z" transform="translate(281.31 100.67)"></path>
  <path class="cls-13" d="M-245.82-79.85a12.16,12.16,0,0,1-5.74-1.44l-.39-.22c-.12-.08-11.08-7.77-19.32-14.83l2.6-3c8.1,6.94,18.9,14.52,19,14.59a8.54,8.54,0,0,0,4.36.93l5.35-.29.21,4-5.33.29Z" transform="translate(281.31 100.67)"></path>
  <path class="cls-13" d="M-187.78-47.57-191-50l.14-.19a43.09,43.09,0,0,1,10.19-8.69l5.23-3.26,2.12,3.39-5.23,3.27A38.48,38.48,0,0,0-187.78-47.57Z" transform="translate(281.31 100.67)"></path>
</svg>